<svg xmlns="http://www.w3.org/2000/svg" xmlns:xlink="http://www.w3.org/1999/xlink" width="500" zoomAndPan="magnify" viewBox="0 0 375 374.999991" height="500" preserveAspectRatio="xMidYMid meet" version="1.0"><defs><g/><clipPath id="dc2baf70e6"><path d="M 178 30 L 220 30 L 220 74 L 178 74 Z M 178 30 " clip-rule="nonzero"/></clipPath><clipPath id="f1c33f0f64"><path d="M 178.019531 43.792969 L 193.339844 30.199219 L 219.742188 59.949219 L 204.425781 73.542969 Z M 178.019531 43.792969 " clip-rule="nonzero"/></clipPath><clipPath id="d7ae0ebbb8"><path d="M 178.019531 43.792969 L 193.339844 30.199219 L 219.742188 59.949219 L 204.425781 73.542969 Z M 178.019531 43.792969 " clip-rule="nonzero"/></clipPath><clipPath id="885858866d"><path d="M 189.375 77.597656 L 267.210938 77.597656 L 267.210938 261.472656 L 189.375 261.472656 Z M 189.375 77.597656 " clip-rule="nonzero"/></clipPath><clipPath id="0a77483f07"><path d="M 189.375 65.074219 L 282.234375 65.074219 L 282.234375 273.996094 L 189.375 273.996094 Z M 189.375 65.074219 " clip-rule="nonzero"/></clipPath><clipPath id="5da8cab4a6"><path d="M 92.765625 176.546875 L 185.625 176.546875 L 185.625 308.976562 L 92.765625 308.976562 Z M 92.765625 176.546875 " clip-rule="nonzero"/></clipPath><clipPath id="8e3d635e25"><path d="M 158 296 L 200 296 L 200 340 L 158 340 Z M 158 296 " clip-rule="nonzero"/></clipPath><clipPath id="9ca00332f6"><path d="M 158.070312 310.097656 L 173.386719 296.503906 L 199.789062 326.25 L 184.472656 339.847656 Z M 158.070312 310.097656 " clip-rule="nonzero"/></clipPath><clipPath id="cf19dad4a0"><path d="M 158.070312 310.097656 L 173.386719 296.503906 L 199.789062 326.25 L 184.472656 339.847656 Z M 158.070312 310.097656 " clip-rule="nonzero"/></clipPath></defs><g clip-path="url(#dc2baf70e6)"><g clip-path="url(#f1c33f0f64)"><g clip-path="url(#d7ae0ebbb8)"><path fill="#ffffff" d="M 178.019531 43.792969 L 193.339844 30.199219 L 219.742188 59.949219 L 204.425781 73.542969 Z M 178.019531 43.792969 " fill-opacity="1" fill-rule="nonzero"/></g></g></g><g clip-path="url(#885858866d)"><path fill="#919191" d="M 189.375 77.597656 L 267.210938 77.597656 L 267.210938 261.472656 L 189.375 261.472656 Z M 189.375 77.597656 " fill-opacity="1" fill-rule="nonzero"/></g><g fill="#545454" fill-opacity="1"><g transform="translate(137.451434, 169.282042)"><g><path d="M 87.453125 0 C 87.453125 -2.164062 86.867188 -3.335938 85.703125 -3.515625 C 85.253906 -3.609375 84.757812 -3.65625 84.21875 -3.65625 L 80.15625 -3.65625 L 48.265625 -81.109375 L 38.25 -81.109375 L 8.65625 -3.65625 L 0 -3.65625 L 0 0 L 24.875 0 C 24.875 -2.164062 24.285156 -3.335938 23.109375 -3.515625 C 22.660156 -3.609375 22.164062 -3.65625 21.625 -3.65625 L 14.0625 -3.65625 L 23.796875 -29.609375 L 50.6875 -29.609375 L 60.828125 -3.65625 L 51.234375 -3.65625 L 51.234375 0 Z M 49.0625 -33.65625 L 25.40625 -33.65625 L 37.03125 -64.75 Z M 49.0625 -33.65625 "/></g></g></g><g clip-path="url(#0a77483f07)"><path fill="#ffffff" d="M 189.375 65.074219 L 282.234375 65.074219 L 282.234375 273.996094 L 189.375 273.996094 Z M 189.375 65.074219 " fill-opacity="1" fill-rule="nonzero"/></g><g fill="#545454" fill-opacity="1"><g transform="translate(154.867349, 266.770706)"><g><path d="M 69.890625 -22.578125 C 69.890625 -30.054688 65.785156 -36.453125 57.578125 -41.765625 C 56.410156 -42.398438 51.679688 -44.925781 43.390625 -49.34375 C 35.816406 -53.300781 31.085938 -57.21875 29.203125 -61.09375 C 28.296875 -62.988281 27.84375 -64.972656 27.84375 -67.046875 C 27.84375 -72.367188 30.410156 -75.882812 35.546875 -77.59375 C 37.265625 -78.132812 39.066406 -78.40625 40.953125 -78.40625 C 48.347656 -78.40625 53.890625 -75.609375 57.578125 -70.015625 C 59.835938 -66.503906 61.007812 -62.316406 61.09375 -57.453125 L 66.375 -57.453125 L 66.375 -81.921875 C 63.851562 -81.921875 62.363281 -81.0625 61.90625 -79.34375 C 61.820312 -78.71875 61.78125 -78 61.78125 -77.1875 C 54.300781 -80.695312 46.414062 -82.453125 38.125 -82.453125 C 27.21875 -82.453125 19.015625 -79.613281 13.515625 -73.9375 C 10.003906 -70.25 8.25 -65.878906 8.25 -60.828125 C 8.25 -53.347656 12.53125 -46.953125 21.09375 -41.640625 C 22.164062 -40.910156 27.03125 -38.335938 35.6875 -33.921875 C 43.4375 -29.867188 48.257812 -25.953125 50.15625 -22.171875 C 50.96875 -20.367188 51.375 -18.519531 51.375 -16.625 C 51.375 -10.132812 48.488281 -5.8125 42.71875 -3.65625 C 40.644531 -2.925781 38.347656 -2.5625 35.828125 -2.5625 C 26.273438 -2.5625 19.5625 -6.9375 15.6875 -15.6875 C 14.0625 -19.375 13.066406 -23.609375 12.703125 -28.390625 L 7.4375 -28.390625 L 7.4375 0.265625 C 9.863281 0.265625 11.304688 -0.453125 11.765625 -1.890625 C 11.941406 -2.796875 12.03125 -4.015625 12.03125 -5.546875 C 18.96875 -0.941406 27.347656 1.359375 37.171875 1.359375 C 48.617188 1.359375 57.40625 -1.570312 63.53125 -7.4375 C 67.769531 -11.582031 69.890625 -16.628906 69.890625 -22.578125 Z M 69.890625 -22.578125 "/></g></g></g><path stroke-linecap="butt" transform="matrix(0, -0.749866, 0.75, 0, 185.621404, 314.424793)" fill="none" stroke-linejoin="miter" d="M -0.00131797 2.499586 L 350.07162 2.499586 " stroke="#545454" stroke-width="5" stroke-opacity="1" stroke-miterlimit="4"/><g clip-path="url(#5da8cab4a6)"><path fill="#ffffff" d="M 92.765625 176.546875 L 185.625 176.546875 L 185.625 308.976562 L 92.765625 308.976562 Z M 92.765625 176.546875 " fill-opacity="1" fill-rule="nonzero"/></g><g clip-path="url(#8e3d635e25)"><g clip-path="url(#9ca00332f6)"><g clip-path="url(#cf19dad4a0)"><path fill="#ffffff" d="M 158.070312 310.097656 L 173.386719 296.503906 L 199.789062 326.25 L 184.472656 339.847656 Z M 158.070312 310.097656 " fill-opacity="1" fill-rule="nonzero"/></g></g></g></svg>